{"title":"In Your Absence/En tu ausencia (2008) BRRIP 1080P","uid":12601065,"size":4106366910,"categoryP":"video","categoryS":"hd___movies","magnet":"?xt=urn:btih:5e65f42a380a19e85cef948f3796e2a0bb3b5434&amp;dn=In+Your+Absence%2FEn+tu+ausencia+%282008%29+BRRIP+1080P+&amp;tr=udp%3A%2F%2Ftracker.leechers-paradise.org%3A6969&amp;tr=udp%3A%2F%2Fzer0day.ch%3A1337&amp;tr=udp%3A%2F%2Fopen.demonii.com%3A1337&amp;tr=udp%3A%2F%2Ftracker.coppersurfer.tk%3A6969&amp;tr=udp%3A%2F%2Fexodus.desync.com%3A6969","seeders":2,"leechers":0,"uploader":"jmanwf","files":3,"time":1445319490,"description":"Description\r\n13-year-old Pablo is a quiet, lonely boy with a troubled past. His only friend is Julia, a shameless 15-year-old girl who is more than willing to help Pablo with his transition from childhood to adolescence, and give him some advice on sex, love and life in general. On a quiet country road just outside of the village, Pablo meets Paco, an oddly calm, well dressed stranger whose car just broke down. Nevertheless, he seems more interested in the boy than fixing his problem. At first Pablo maintains a cautious distance from the stranger, vaguely heeding his fellow villagers’ advice to keep his distance. However, the boy’s subconscious quest to find understanding of his dark past and guilt makes him lose all of his protective layers. He sees a new friend in Paco; someone he can open up to and feel valued by almost like a replacement father. As Pablo’s affection grows for the man, he is unknowingly and blindly being lead toward a tragedy that will scar him for life\r\n\r\n\r\n\r\n\r\nVideo\r\nID : 1\r\nFormat : AVC\r\nFormat/Info : Advanced Video Codec\r\nFormat profile :   \r\nFormat settings, CABAC : Yes\r\nFormat settings, ReFrames : 3 frames\r\nFormat settings, GOP : M=4, N=25\r\nCodec ID : avc1\r\nCodec ID/Info : Advanced Video Coding\r\nDuration : 1h 40mn\r\nBit rate mode : Variable\r\nBit rate : 4 601 Kbps\r\nMaximum bit rate : 39.2 Mbps\r\nWidth : 1 920 pixels\r\nHeight : 1 080 pixels\r\nDisplay aspect ratio : 16:9\r\nFrame rate mode : Constant\r\nFrame rate : 25.000 fps\r\nColor space : YUV\r\nChroma subsampling : 4:2:0\r\nBit depth : 8 bits\r\nScan type : Progressive\r\nBits/(Pixel*Frame) : 0.089\r\nStream size : 3.23 GiB (85%)\r\nTitle : Main video\r\n\r\nAudio #1\r\nID : 2\r\nFormat : AC-3\r\nFormat/Info : Audio Coding 3\r\nMode extension : CM (complete main)\r\nFormat settings, Endianness : Big\r\nCodec ID : ac-3\r\nDuration : 1h 40mn\r\nBit rate mode : Constant\r\nBit rate : 448 Kbps\r\nChannel(s) : 6 channels\r\nChannel positions : Front: L C R, Side: L R, LFE\r\nSampling rate : 48.0 KHz\r\nBit depth : 16 bits\r\nCompression mode : Lossy\r\nStream size : 322 MiB (8%)\r\nTitle : Spanish\r\nLanguage : Spanish\r\n\r\nAudio #2\r\nID : 3\r\nFormat : AC-3\r\nFormat/Info : Audio Coding 3\r\nMode extension : CM (complete main)\r\nFormat settings, Endianness : Big\r\nCodec ID : ac-3\r\nDuration : 1h 40mn\r\nBit rate mode : Constant\r\nBit rate : 192 Kbps\r\nChannel(s) : 2 channels\r\nChannel positions : Front: L R\r\nSampling rate : 48.0 KHz\r\nBit depth : 16 bits\r\nCompression mode : Lossy\r\nStream size : 138 MiB (4%)\r\nTitle : English\r\nLanguage : English\r\n\r\nAudio #3\r\nID : 4\r\nFormat : AC-3\r\nFormat/Info : Audio Coding 3\r\nMode extension : CM (complete main)\r\nFormat settings, Endianness : Big\r\nCodec ID : ac-3\r\nDuration : 1h 40mn\r\nBit rate mode : Constant\r\nBit rate : 192 Kbps\r\nChannel(s) : 2 channels\r\nChannel positions : Front: L R\r\nSampling rate : 48.0 KHz\r\nBit depth : 16 bits\r\nCompression mode : Lossy\r\nStream size : 138 MiB (4%)\r\nTitle : Spanish\r\nLanguage : Spanish\r\n\r\n\r\n\r\n\r\nIncludes Directors Commentary \r\n\r\n\r\n\r\n\r\n \nhttp://www.noelfilms.com/films/en-tu-ausencia/\r\n\r\n\r\n\r\n \nhttp://s18.postimg.org/rk8n8vhpl/image.jpg\r\n\r\n\r\n \nhttp://s18.postimg.org/8dvg5p17t/image.jpg\r\n\r\n\r\n \nhttp://s18.postimg.org/k1pi08qcp/image.jpg\r\n\r\n\r\n \nhttp://s18.postimg.org/dzhv9r1wp/image.jpg\r\n\r\n\r\n \nhttp://s18.postimg.org/a9i8guq21/En_tu_Ausencia_2008_Front_Cover.jpg","torrent":{"xt":"urn:btih:5e65f42a380a19e85cef948f3796e2a0bb3b5434","amp;dn":"In+Your+Absence%2FEn+tu+ausencia+%282008%29+BRRIP+1080P+","amp;tr":["udp%3A%2F%2Ftracker.leechers-paradise.org%3A6969","udp%3A%2F%2Fzer0day.ch%3A1337","udp%3A%2F%2Fopen.demonii.com%3A1337","udp%3A%2F%2Ftracker.coppersurfer.tk%3A6969","udp%3A%2F%2Fexodus.desync.com%3A6969"],"infoHash":"5e65f42a380a19e85cef948f3796e2a0bb3b5434","infoHashBuffer":{"type":"Buffer","data":[94,101,244,42,56,10,25,232,92,239,148,143,55,150,226,160,187,59,84,52]},"announce":[],"urlList":[]}}